<?xml version="1.0" encoding="utf-8"?>
<svg version="1.1" id="Layer_1" xmlns="http://www.w3.org/2000/svg" xmlns:xlink="http://www.w3.org/1999/xlink" x="0px" y="0px"
	 viewBox="0 0 512 512" style="enable-background:new 0 0 512 512;" xml:space="preserve">
<style type="text/css">
	.st0{fill:#ffffff;}
</style>
<g>
	<path class="st0" d="M492,106.8c-18.5-22-52.6-30.9-117.8-30.9H137.7c-66.7,0-101.4,9.5-119.8,32.9C0,131.6,0,165.2,0,211.7v88.6
		c0,90.1,21.3,135.8,137.7,135.8h236.6c56.5,0,87.8-7.9,108.1-27.3C503.1,389,512,356.5,512,300.3v-88.6
		C512,162.6,510.6,128.8,492,106.8z M328.7,268.2l-107.4,56.1c-2.4,1.3-5,1.9-7.6,1.9c-3,0-5.9-0.8-8.6-2.4c-4.9-3-8-8.4-8-14.1
		V197.8c0-5.8,3-11.1,7.9-14.1c4.9-3,11.1-3.2,16.2-0.5l107.4,55.8c5.5,2.8,8.9,8.5,8.9,14.6C337.6,259.7,334.2,265.4,328.7,268.2z"
		/>
</g>
</svg>
